<?xml version="1.0" standalone="no"?>
<!DOCTYPE svg PUBLIC "-//W3C//DTD SVG 20010904//EN"
 "http://www.w3.org/TR/2001/REC-SVG-20010904/DTD/svg10.dtd">
<svg version="1.0" xmlns="http://www.w3.org/2000/svg"
 width="600.000000pt" height="118.000000pt" viewBox="0 0 600.000000 118.000000"
 preserveAspectRatio="xMidYMid meet">

<g transform="translate(0.000000,118.000000) scale(0.100000,-0.100000)"
fill="#000000" stroke="none">
<path d="M1130 591 l0 -511 25 0 25 0 -2 507 -3 508 -22 3 -23 3 0 -510z"/>
<path d="M4784 1087 c-2 -7 -3 -236 -2 -508 l3 -494 23 -3 22 -3 0 510 c0 507
0 511 -20 511 -11 0 -23 -6 -26 -13z"/>
<path d="M353 975 c-3 -9 2 -24 11 -34 9 -10 16 -21 16 -24 0 -10 -39 -8 -60
3 -13 7 -21 7 -25 0 -3 -5 -37 -10 -74 -10 -105 0 -101 10 -101 -281 0 -196 3
-249 14 -265 13 -17 29 -19 146 -22 129 -4 131 -4 124 -25 -3 -12 -7 -22 -8
-23 0 0 -17 -5 -36 -10 -38 -11 -67 -50 -57 -77 6 -15 28 -17 181 -17 146 0
175 2 180 15 13 34 -34 85 -78 85 -13 0 -26 20 -26 40 0 5 56 10 123 12 86 2
129 7 140 17 15 12 17 40 17 217 0 129 -4 204 -10 204 -6 0 -10 -62 -10 -165
l0 -165 -180 0 c-99 0 -180 2 -180 6 0 3 14 10 30 15 21 8 30 17 30 33 0 25
20 46 64 64 24 11 31 10 46 -3 52 -47 121 24 74 77 -9 9 -26 35 -38 56 -38 69
-81 131 -94 137 -7 2 -22 1 -32 -5 -14 -8 -21 -5 -34 15 -9 13 -16 29 -16 35
0 7 53 10 163 8 l162 -3 3 -37 c2 -21 7 -38 13 -38 13 0 11 74 -3 88 -8 8 -63
12 -179 12 -161 0 -168 1 -174 21 -14 43 -109 78 -122 44z m77 -25 c10 -6 25
-34 34 -64 9 -29 23 -59 31 -66 14 -12 13 -16 -6 -36 -21 -23 -22 -23 -48 -4
-14 10 -45 24 -68 30 -42 11 -63 33 -63 66 0 15 3 15 23 -4 30 -28 73 -29 87
-2 12 22 8 33 -23 68 -18 20 -19 22 -3 22 9 0 26 -4 36 -10z m-135 -103 c17
-36 28 -45 70 -59 l50 -16 -3 -49 c-4 -55 -8 -60 -42 -65 -17 -2 -26 -10 -28
-24 -2 -12 -14 -32 -28 -45 -13 -12 -24 -26 -24 -31 0 -15 27 -8 45 12 19 21
19 20 72 -32 49 -49 52 -53 36 -70 -14 -15 -33 -18 -122 -18 l-105 0 33 34
c50 51 19 58 -33 7 -75 -73 -76 -70 -76 160 0 119 4 208 10 220 9 15 21 19 68
19 l57 -1 20 -42z m105 33 c0 -5 -6 -10 -14 -10 -8 0 -18 5 -21 10 -3 6 3 10
14 10 12 0 21 -4 21 -10z m168 -92 c-2 -15 2 -23 12 -23 8 0 16 -10 18 -22 2
-14 8 -20 18 -16 10 4 14 -2 14 -21 0 -16 6 -26 15 -26 8 0 15 -4 15 -8 0 -12
-72 -77 -100 -90 -14 -7 -33 -17 -42 -24 -15 -11 -24 -6 -62 32 -30 28 -42 47
-36 55 5 5 10 31 12 55 3 41 5 45 28 42 18 -2 35 7 60 33 39 41 53 44 48 13z
m-128 -213 c35 -35 61 -68 57 -72 -8 -7 -137 115 -137 129 0 18 19 4 80 -57z
m257 21 c-9 -23 -35 -30 -52 -16 -14 12 -13 16 7 37 19 20 24 22 36 9 8 -8 12
-22 9 -30z m121 -193 l-3 -28 -325 -3 c-297 -2 -326 -1 -337 15 -32 43 -31 43
328 43 l340 0 -3 -27z m-280 -90 c3 -22 0 -23 -58 -23 -53 0 -61 2 -56 16 3 9
6 20 6 25 0 6 23 9 53 7 45 -3 52 -6 55 -25z m90 -65 c33 -33 15 -38 -148 -38
-88 0 -160 3 -160 6 0 3 5 14 10 25 10 17 22 19 148 19 94 0 142 -4 150 -12z"/>
<path d="M5446 908 c-3 -13 -6 -35 -6 -49 0 -40 -42 -48 -81 -14 -17 14 -34
25 -38 25 -4 0 -26 -20 -50 -44 l-43 -44 26 -35 c34 -45 28 -87 -13 -87 -66 0
-72 -7 -69 -74 l3 -61 48 -9 c57 -11 73 -42 40 -79 -35 -39 -35 -45 3 -87 41
-45 60 -49 98 -19 35 28 76 19 76 -16 0 -13 4 -35 10 -49 9 -24 15 -26 65 -26
50 0 56 2 65 26 6 14 10 36 10 49 0 35 41 44 76 16 38 -30 55 -26 99 19 l38
39 -27 36 c-34 44 -30 85 9 85 13 0 35 4 49 10 24 9 26 15 26 65 0 50 -2 56
-26 65 -14 6 -36 10 -49 10 -37 0 -42 44 -10 86 l26 34 -45 48 c-34 35 -48 45
-59 37 -8 -5 -26 -18 -40 -28 -33 -24 -67 -15 -67 18 0 13 -4 35 -10 49 -9 24
-14 26 -69 26 -52 0 -59 -2 -65 -22z m125 -224 c62 -32 74 -126 23 -178 -92
-92 -239 18 -179 134 29 55 98 75 156 44z"/>
<path d="M1450 595 l0 -165 25 0 24 0 3 122 3 121 54 -71 c31 -40 63 -72 72
-72 9 0 41 32 70 70 30 39 56 70 59 70 3 0 3 -54 2 -120 l-4 -120 26 0 26 0 0
165 0 165 -23 0 c-18 0 -38 -21 -85 -85 -34 -47 -66 -85 -70 -85 -4 1 -35 39
-70 85 -49 67 -68 85 -87 85 l-25 0 0 -165z"/>
<path d="M1995 605 c-38 -86 -71 -161 -73 -166 -2 -5 7 -9 21 -9 18 0 28 9 42
40 l18 40 89 0 90 0 15 -40 c12 -31 21 -40 40 -40 12 0 23 4 23 8 0 5 -31 78
-69 163 -64 142 -72 154 -98 157 -27 3 -30 -2 -98 -153z m128 33 c15 -35 27
-66 27 -70 0 -5 -27 -8 -61 -8 -45 0 -60 3 -56 13 32 81 53 127 57 127 3 0 18
-28 33 -62z"/>
<path d="M2370 595 l0 -165 125 0 125 0 0 25 0 25 -100 0 -100 0 0 140 0 140
-25 0 -25 0 0 -165z"/>
<path d="M2740 595 l0 -165 25 0 c24 0 25 2 25 70 l0 70 91 0 c88 0 90 1 87
23 -3 21 -8 22 -90 25 l-88 3 0 44 0 45 100 0 100 0 0 25 0 25 -125 0 -125 0
0 -165z"/>
<path d="M3125 605 c-38 -86 -71 -161 -73 -166 -2 -5 7 -9 21 -9 18 0 28 9 42
40 l18 40 88 0 89 0 20 -40 c14 -27 27 -40 41 -40 27 0 27 -2 -55 180 -60 133
-67 145 -93 148 -27 3 -30 -2 -98 -153z m128 33 c15 -35 27 -66 27 -70 0 -5
-27 -8 -61 -8 -45 0 -60 3 -56 13 32 81 53 127 57 127 3 0 18 -28 33 -62z"/>
<path d="M3510 595 l0 -165 100 0 c145 0 190 24 190 100 0 22 -9 40 -29 59
-28 26 -28 28 -10 39 12 8 19 23 19 43 0 70 -37 89 -176 89 l-94 0 0 -165z
m204 109 c9 -4 16 -18 16 -35 0 -24 -6 -30 -37 -39 -21 -6 -60 -10 -88 -8
l-50 3 -3 43 -3 42 75 0 c41 0 81 -3 90 -6z m6 -137 c31 -16 39 -56 14 -74
-11 -8 -48 -13 -101 -13 l-83 0 0 43 c0 24 3 47 7 50 11 12 137 7 163 -6z"/>
<path d="M3920 735 c0 -22 4 -25 35 -25 l35 0 0 -115 0 -115 -35 0 c-31 0 -35
-3 -35 -25 l0 -25 100 0 100 0 0 25 c0 23 -4 25 -40 25 l-40 0 0 114 0 115 38
3 c30 2 38 7 40 26 3 22 1 22 -97 22 l-101 0 0 -25z"/>
<path d="M4230 735 c0 -24 3 -25 55 -25 l55 0 0 -140 0 -140 25 0 25 0 0 140
0 140 55 0 c52 0 55 1 55 25 l0 25 -135 0 -135 0 0 -25z"/>
</g>
</svg>
