<?xml version="1.0" standalone="no"?>
<svg xmlns:xlink="http://www.w3.org/1999/xlink" id="wave" style="transform:rotate(0deg); transition: 0.3s" viewBox="0 0 1440 300" version="1.1" xmlns="http://www.w3.org/2000/svg"><defs><linearGradient id="sw-gradient-0" x1="0" x2="0" y1="1" y2="0"><stop stop-color="rgba(255, 255, 255, 1)" offset="0%"/><stop stop-color="rgba(255, 255, 255, 1)" offset="100%"/></linearGradient></defs><path style="transform:translate(0, 0px); opacity:1" fill="url(#sw-gradient-0)" d="M0,150L60,160C120,170,240,190,360,195C480,200,600,190,720,170C840,150,960,120,1080,125C1200,130,1320,170,1440,160C1560,150,1680,90,1800,80C1920,70,2040,110,2160,140C2280,170,2400,190,2520,210C2640,230,2760,250,2880,235C3000,220,3120,170,3240,150C3360,130,3480,140,3600,150C3720,160,3840,170,3960,155C4080,140,4200,100,4320,100C4440,100,4560,140,4680,135C4800,130,4920,80,5040,80C5160,80,5280,130,5400,155C5520,180,5640,180,5760,180C5880,180,6000,180,6120,185C6240,190,6360,200,6480,205C6600,210,6720,210,6840,195C6960,180,7080,150,7200,130C7320,110,7440,100,7560,105C7680,110,7800,130,7920,125C8040,120,8160,90,8280,80C8400,70,8520,80,8580,85L8640,90L8640,300L8580,300C8520,300,8400,300,8280,300C8160,300,8040,300,7920,300C7800,300,7680,300,7560,300C7440,300,7320,300,7200,300C7080,300,6960,300,6840,300C6720,300,6600,300,6480,300C6360,300,6240,300,6120,300C6000,300,5880,300,5760,300C5640,300,5520,300,5400,300C5280,300,5160,300,5040,300C4920,300,4800,300,4680,300C4560,300,4440,300,4320,300C4200,300,4080,300,3960,300C3840,300,3720,300,3600,300C3480,300,3360,300,3240,300C3120,300,3000,300,2880,300C2760,300,2640,300,2520,300C2400,300,2280,300,2160,300C2040,300,1920,300,1800,300C1680,300,1560,300,1440,300C1320,300,1200,300,1080,300C960,300,840,300,720,300C600,300,480,300,360,300C240,300,120,300,60,300L0,300Z"/></svg>