<svg id="e5u0ZQTScFt1" xmlns="http://www.w3.org/2000/svg" xmlns:xlink="http://www.w3.org/1999/xlink" viewBox="0 0 1440 320" shape-rendering="geometricPrecision" text-rendering="geometricPrecision"><path d="M0,256l60-10.7c60-10.3,180-32.3,300-48c120-16.3,240-26.3,360-16c120,10.7,240,42.7,360,32c120-10.3,240-64.3,300-90.6L1440,96v224h-60c-60,0-180,0-300,0s-240,0-360,0-240,0-360,0-240,0-300,0h-60v-64Z" transform="matrix(1.424075 0 0 0.413093-598.667332 27.81024)" fill="#f3f4f5"/><path d="M0,256l60-10.7c60-10.3,180-32.3,300-48c120-16.3,240-26.3,360-16c120,10.7,240,42.7,360,32c120-10.3,240-64.3,300-90.6L1440,96v224h-60c-60,0-180,0-300,0s-240,0-360,0-240,0-360,0-240,0-300,0h-60v-64Z" transform="matrix(-2.568534 0 0-.420234 2497.344477 285.141547)" fill="#f3f4f5"/></svg>
